<svg xmlns="http://www.w3.org/2000/svg" xmlns:xlink="http://www.w3.org/1999/xlink" width="500" zoomAndPan="magnify" viewBox="0 0 375 374.999991" height="500" preserveAspectRatio="xMidYMid meet" version="1.0"><defs><g/><clipPath id="284ea22520"><path d="M 255 52.421875 L 368.328125 52.421875 L 368.328125 176.355469 L 255 176.355469 Z M 255 52.421875 " clip-rule="nonzero"/></clipPath><clipPath id="ac214b1c48"><path d="M 111.738281 183 L 365 183 L 365 238.410156 L 111.738281 238.410156 Z M 111.738281 183 " clip-rule="nonzero"/></clipPath><clipPath id="fe7055e920"><path d="M 0.359375 101 L 276 101 L 276 159 L 0.359375 159 Z M 0.359375 101 " clip-rule="nonzero"/></clipPath><clipPath id="c6fb971058"><path d="M 1 0.441406 L 35 0.441406 L 35 43 L 1 43 Z M 1 0.441406 " clip-rule="nonzero"/></clipPath><clipPath id="15b4925547"><path d="M 128 0.441406 L 162 0.441406 L 162 44 L 128 44 Z M 128 0.441406 " clip-rule="nonzero"/></clipPath><clipPath id="67a7771436"><rect x="0" width="276" y="0" height="58"/></clipPath><clipPath id="26e05026e4"><rect x="0" width="370" y="0" height="240"/></clipPath></defs><g transform="matrix(1, 0, 0, 1, 3, 68)"><g clip-path="url(#26e05026e4)"><g clip-path="url(#284ea22520)"><path fill="#3871c1" d="M 346.246094 118.980469 C 319.339844 176.234375 255.144531 175.226562 255.144531 175.226562 C 255.144531 175.226562 329.390625 186.835938 358.992188 125.082031 C 368.277344 105.699219 369.519531 86.011719 367.507812 72.636719 C 365.472656 59.054688 360.429688 51.964844 358.835938 52.679688 C 355.175781 54.316406 361.75 85.992188 346.246094 118.980469 " fill-opacity="1" fill-rule="nonzero"/></g><path fill="#3871c1" d="M 325.503906 78.140625 C 327.457031 141.367188 269.761719 169.523438 269.761719 169.523438 C 269.761719 169.523438 341.222656 146.273438 339.632812 77.8125 C 339.132812 56.328125 331.316406 38.214844 323.46875 27.199219 C 315.5 16.011719 307.785156 11.96875 306.6875 13.328125 C 304.171875 16.441406 324.378906 41.710938 325.503906 78.140625 " fill-opacity="1" fill-rule="nonzero"/><path fill="#3871c1" d="M 288.667969 53.183594 C 316.691406 109.898438 275.886719 159.445312 275.886719 159.445312 C 275.886719 159.445312 331.253906 108.652344 301.382812 47.027344 C 292.007812 27.6875 277.378906 14.445312 265.664062 7.679688 C 253.765625 0.808594 245.078125 0.328125 244.636719 2.019531 C 243.640625 5.894531 272.519531 20.503906 288.667969 53.183594 " fill-opacity="1" fill-rule="nonzero"/><g clip-path="url(#ac214b1c48)"><path fill="#656263" d="M 111.738281 195 C 111.738281 195 142.945312 169.199219 195.949219 193.6875 C 264.496094 225.355469 329.878906 234.109375 364.808594 198.695312 C 364.808594 198.695312 349.785156 235.0625 294.988281 238.183594 C 212.191406 242.898438 186.160156 171.945312 111.738281 195 " fill-opacity="1" fill-rule="nonzero"/></g><path fill="#3871c1" d="M 113.796875 190.550781 C 113.796875 190.550781 139.566406 159.324219 196.246094 173.367188 C 269.542969 191.519531 335.398438 187.777344 363.011719 146.402344 C 363.011719 146.402344 355.132812 184.957031 301.914062 198.363281 C 221.496094 218.621094 182.523438 153.863281 113.796875 190.550781 " fill-opacity="1" fill-rule="nonzero"/><g clip-path="url(#fe7055e920)"><g transform="matrix(1, 0, 0, 1, 0, 101)"><g clip-path="url(#67a7771436)"><g clip-path="url(#c6fb971058)"><g fill="#3871c1" fill-opacity="1"><g transform="translate(0.48098, 42.937057)"><g><path d="M 11.34375 -42.453125 L 23.453125 -42.453125 L 34.046875 0 L 24.65625 0 L 22.59375 -9.125 L 12.21875 -9.125 L 10.203125 0 L 0.765625 0 Z M 17.375 -32.3125 L 13.90625 -16.71875 L 20.84375 -16.71875 Z M 17.375 -32.3125 "/></g></g></g></g><g fill="#3871c1" fill-opacity="1"><g transform="translate(34.62218, 42.937057)"><g><path d="M 19.875 10.859375 L 19.875 -2.4375 C 19.070312 -1.5 18.066406 -0.738281 16.859375 -0.15625 C 15.648438 0.414062 14.191406 0.703125 12.484375 0.703125 C 9.878906 0.703125 7.789062 0.109375 6.21875 -1.078125 C 4.644531 -2.273438 3.515625 -3.941406 2.828125 -6.078125 C 2.140625 -8.210938 1.796875 -10.65625 1.796875 -13.40625 L 1.796875 -15.359375 C 1.796875 -18.148438 2.140625 -20.601562 2.828125 -22.71875 C 3.515625 -24.84375 4.644531 -26.5 6.21875 -27.6875 C 7.789062 -28.882812 9.878906 -29.484375 12.484375 -29.484375 C 14.472656 -29.484375 16.128906 -29.09375 17.453125 -28.3125 C 18.773438 -27.539062 19.835938 -26.535156 20.640625 -25.296875 L 21.234375 -28.78125 L 28.9375 -28.78125 L 28.453125 -20.640625 L 28.453125 10.859375 Z M 19.875 -9.390625 L 19.875 -19.390625 C 19.507812 -19.890625 18.921875 -20.460938 18.109375 -21.109375 C 17.296875 -21.765625 16.253906 -22.09375 14.984375 -22.09375 C 13.316406 -22.09375 12.117188 -21.503906 11.390625 -20.328125 C 10.671875 -19.148438 10.3125 -17.492188 10.3125 -15.359375 L 10.3125 -13.40625 C 10.3125 -11.3125 10.671875 -9.664062 11.390625 -8.46875 C 12.117188 -7.269531 13.316406 -6.671875 14.984375 -6.671875 C 16.253906 -6.671875 17.296875 -7 18.109375 -7.65625 C 18.921875 -8.3125 19.507812 -8.890625 19.875 -9.390625 Z M 19.875 -9.390625 "/></g></g></g><g fill="#3871c1" fill-opacity="1"><g transform="translate(66.158181, 42.937057)"><g><path d="M 2.609375 -28.78125 L 11.125 -28.78125 L 11.125 -10.703125 C 11.125 -9.679688 11.394531 -8.753906 11.9375 -7.921875 C 12.488281 -7.085938 13.488281 -6.671875 14.9375 -6.671875 C 16.3125 -6.671875 17.40625 -7 18.21875 -7.65625 C 19.03125 -8.3125 19.617188 -8.890625 19.984375 -9.390625 L 19.984375 -28.78125 L 28.5625 -28.78125 L 28.5625 -8.140625 L 29.046875 0 L 21.390625 0 L 20.734375 -3.640625 C 19.835938 -2.367188 18.628906 -1.328125 17.109375 -0.515625 C 15.585938 0.296875 13.722656 0.703125 11.515625 0.703125 C 9.335938 0.703125 7.597656 0.234375 6.296875 -0.703125 C 4.992188 -1.648438 4.050781 -2.878906 3.46875 -4.390625 C 2.894531 -5.910156 2.609375 -7.539062 2.609375 -9.28125 Z M 2.609375 -28.78125 "/></g></g></g><g fill="#3871c1" fill-opacity="1"><g transform="translate(97.639911, 42.937057)"><g><path d="M 19.984375 0 L 19.4375 -2.984375 C 18.425781 -1.898438 17.175781 -1.015625 15.6875 -0.328125 C 14.207031 0.359375 12.453125 0.703125 10.421875 0.703125 C 8.285156 0.703125 6.566406 0.304688 5.265625 -0.484375 C 3.960938 -1.285156 3.03125 -2.34375 2.46875 -3.65625 C 1.90625 -4.976562 1.625 -6.398438 1.625 -7.921875 L 1.625 -8.46875 C 1.625 -10.570312 2.066406 -12.238281 2.953125 -13.46875 C 3.847656 -14.695312 5.070312 -15.632812 6.625 -16.28125 C 8.175781 -16.9375 9.953125 -17.410156 11.953125 -17.703125 L 18.5625 -18.734375 C 18.53125 -20.140625 18.242188 -21.195312 17.703125 -21.90625 C 17.160156 -22.613281 16.144531 -22.96875 14.65625 -22.96875 C 13.101562 -22.96875 12.070312 -22.585938 11.5625 -21.828125 C 11.0625 -21.066406 10.8125 -20.21875 10.8125 -19.28125 L 2.71875 -19.28125 L 2.71875 -19.765625 C 2.71875 -21.429688 3.078125 -23.003906 3.796875 -24.484375 C 4.523438 -25.972656 5.773438 -27.175781 7.546875 -28.09375 C 9.316406 -29.019531 11.78125 -29.484375 14.9375 -29.484375 C 18.082031 -29.484375 20.539062 -29.046875 22.3125 -28.171875 C 24.09375 -27.304688 25.34375 -26.054688 26.0625 -24.421875 C 26.789062 -22.796875 27.15625 -20.828125 27.15625 -18.515625 L 27.15625 -8.140625 L 27.6875 0 Z M 13.578125 -6.25 C 14.804688 -6.25 15.828125 -6.488281 16.640625 -6.96875 C 17.453125 -7.457031 18.09375 -7.941406 18.5625 -8.421875 L 18.5625 -13.6875 L 13.6875 -12.921875 C 12.34375 -12.703125 11.414062 -12.296875 10.90625 -11.703125 C 10.40625 -11.109375 10.15625 -10.375 10.15625 -9.5 L 10.15625 -9.171875 C 10.15625 -8.453125 10.414062 -7.785156 10.9375 -7.171875 C 11.46875 -6.554688 12.347656 -6.25 13.578125 -6.25 Z M 13.578125 -6.25 "/></g></g></g><g clip-path="url(#15b4925547)"><g fill="#656263" fill-opacity="1"><g transform="translate(127.449878, 42.937057)"><g><path d="M 23.453125 0.109375 L 11.34375 0.109375 L 0.765625 -42.359375 L 10.15625 -42.359375 L 17.375 -10.046875 L 24.59375 -42.359375 L 34.046875 -42.359375 Z M 23.453125 0.109375 "/></g></g></g></g><g fill="#656263" fill-opacity="1"><g transform="translate(159.527884, 42.937057)"><g><path d="M 28.5625 -11.296875 L 10.203125 -11.296875 C 10.390625 -9.304688 10.941406 -7.894531 11.859375 -7.0625 C 12.785156 -6.226562 14.046875 -5.8125 15.640625 -5.8125 C 17.117188 -5.8125 18.289062 -6.160156 19.15625 -6.859375 C 20.03125 -7.566406 20.46875 -8.359375 20.46875 -9.234375 L 28.5625 -9.234375 L 28.5625 -9.015625 C 28.5625 -7.203125 28.050781 -5.550781 27.03125 -4.0625 C 26.019531 -2.582031 24.554688 -1.414062 22.640625 -0.5625 C 20.722656 0.28125 18.367188 0.703125 15.578125 0.703125 C 12.398438 0.703125 9.773438 0.0859375 7.703125 -1.140625 C 5.640625 -2.367188 4.109375 -4.066406 3.109375 -6.234375 C 2.117188 -8.410156 1.625 -10.875 1.625 -13.625 L 1.625 -15.15625 C 1.625 -17.9375 2.128906 -20.40625 3.140625 -22.5625 C 4.160156 -24.71875 5.679688 -26.410156 7.703125 -27.640625 C 9.734375 -28.867188 12.25 -29.484375 15.25 -29.484375 C 18.289062 -29.484375 20.796875 -28.867188 22.765625 -27.640625 C 24.742188 -26.410156 26.203125 -24.71875 27.140625 -22.5625 C 28.085938 -20.40625 28.5625 -17.9375 28.5625 -15.15625 Z M 15.09375 -22.96875 C 12.125 -22.96875 10.515625 -21.140625 10.265625 -17.484375 L 19.921875 -17.484375 C 19.671875 -21.140625 18.0625 -22.96875 15.09375 -22.96875 Z M 15.09375 -22.96875 "/></g></g></g><g fill="#656263" fill-opacity="1"><g transform="translate(189.706919, 42.937057)"><g><path d="M 28.890625 0 L 20.359375 0 L 20.359375 -18.078125 C 20.359375 -19.128906 20.09375 -20.0625 19.5625 -20.875 C 19.039062 -21.6875 18.039062 -22.09375 16.5625 -22.09375 C 15.21875 -22.09375 14.117188 -21.765625 13.265625 -21.109375 C 12.421875 -20.460938 11.835938 -19.890625 11.515625 -19.390625 L 11.515625 0 L 2.9375 0 L 2.9375 -20.640625 L 2.4375 -28.78125 L 10.09375 -28.78125 L 10.75 -25.078125 C 11.65625 -26.347656 12.867188 -27.398438 14.390625 -28.234375 C 15.910156 -29.066406 17.773438 -29.484375 19.984375 -29.484375 C 22.148438 -29.484375 23.882812 -29.007812 25.1875 -28.0625 C 26.5 -27.125 27.441406 -25.894531 28.015625 -24.375 C 28.597656 -22.851562 28.890625 -21.226562 28.890625 -19.5 Z M 28.890625 0 "/></g></g></g><g fill="#656263" fill-opacity="1"><g transform="translate(220.537121, 42.937057)"><g><path d="M 14.015625 -28.78125 L 21.390625 -28.78125 L 21.390625 -21.28125 L 14.015625 -21.28125 L 14.015625 -10.90625 C 14.015625 -9.132812 14.394531 -7.984375 15.15625 -7.453125 C 15.914062 -6.929688 16.945312 -6.671875 18.25 -6.671875 C 18.71875 -6.671875 19.234375 -6.71875 19.796875 -6.8125 C 20.359375 -6.90625 20.707031 -6.988281 20.84375 -7.0625 L 20.84375 0 C 20.59375 0.144531 20.085938 0.296875 19.328125 0.453125 C 18.566406 0.617188 17.535156 0.703125 16.234375 0.703125 C 14.066406 0.703125 12.175781 0.359375 10.5625 -0.328125 C 8.945312 -1.015625 7.6875 -2.132812 6.78125 -3.6875 C 5.882812 -5.25 5.4375 -7.347656 5.4375 -9.984375 L 5.4375 -21.28125 L 1.03125 -21.28125 L 1.03125 -28.78125 L 5.4375 -28.78125 L 5.4375 -36.921875 L 14.015625 -36.921875 Z M 14.015625 -28.78125 "/></g></g></g><g fill="#656263" fill-opacity="1"><g transform="translate(243.931296, 42.937057)"><g><path d="M 19.984375 0 L 19.4375 -2.984375 C 18.425781 -1.898438 17.175781 -1.015625 15.6875 -0.328125 C 14.207031 0.359375 12.453125 0.703125 10.421875 0.703125 C 8.285156 0.703125 6.566406 0.304688 5.265625 -0.484375 C 3.960938 -1.285156 3.03125 -2.34375 2.46875 -3.65625 C 1.90625 -4.976562 1.625 -6.398438 1.625 -7.921875 L 1.625 -8.46875 C 1.625 -10.570312 2.066406 -12.238281 2.953125 -13.46875 C 3.847656 -14.695312 5.070312 -15.632812 6.625 -16.28125 C 8.175781 -16.9375 9.953125 -17.410156 11.953125 -17.703125 L 18.5625 -18.734375 C 18.53125 -20.140625 18.242188 -21.195312 17.703125 -21.90625 C 17.160156 -22.613281 16.144531 -22.96875 14.65625 -22.96875 C 13.101562 -22.96875 12.070312 -22.585938 11.5625 -21.828125 C 11.0625 -21.066406 10.8125 -20.21875 10.8125 -19.28125 L 2.71875 -19.28125 L 2.71875 -19.765625 C 2.71875 -21.429688 3.078125 -23.003906 3.796875 -24.484375 C 4.523438 -25.972656 5.773438 -27.175781 7.546875 -28.09375 C 9.316406 -29.019531 11.78125 -29.484375 14.9375 -29.484375 C 18.082031 -29.484375 20.539062 -29.046875 22.3125 -28.171875 C 24.09375 -27.304688 25.34375 -26.054688 26.0625 -24.421875 C 26.789062 -22.796875 27.15625 -20.828125 27.15625 -18.515625 L 27.15625 -8.140625 L 27.6875 0 Z M 13.578125 -6.25 C 14.804688 -6.25 15.828125 -6.488281 16.640625 -6.96875 C 17.453125 -7.457031 18.09375 -7.941406 18.5625 -8.421875 L 18.5625 -13.6875 L 13.6875 -12.921875 C 12.34375 -12.703125 11.414062 -12.296875 10.90625 -11.703125 C 10.40625 -11.109375 10.15625 -10.375 10.15625 -9.5 L 10.15625 -9.171875 C 10.15625 -8.453125 10.414062 -7.785156 10.9375 -7.171875 C 11.46875 -6.554688 12.347656 -6.25 13.578125 -6.25 Z M 13.578125 -6.25 "/></g></g></g></g></g></g></g></g></svg>